PathFileType	4	(X/Y/Z)	/Users/itak/Documents/Research/Walk-IL/dataset/trc/00265_00009.trc
DataRate	CameraRate	NumFrames	NumMarkers	Units	OrigDataRate	OrigDataStartFrame	OrigNumFrames
100.000000	100.000000	4	54	mm	100.000000	107	428
Frame#	Time	RPSI			LPSI			L3			STRN			T10			C7			CLAV			RBAK			LBAK			LSHO			LUPA			LAEL			LAOL			LWTS			LWPS			LFRA			LIFD			LHPS			LHTS			RSHO			RUPA			RAEL			RAOL			RWTS			RWPS			RFRA			RIFD			RHTS			RHPS			RBHD			LFHD			RFHD			LBHD			LHIP			RHIP			RASI			LASI			LKNE			LTHI			LANK			LTIP			LTOE			LMT1			LMT5			LHEE			RKNE			RTHI			RANK			RTIP			RTOE			RMT1			RMT5			RHEE			*53			
		X1	Y1	Z1	X2	Y2	Z2	X3	Y3	Z3	X4	Y4	Z4	X5	Y5	Z5	X6	Y6	Z6	X7	Y7	Z7	X8	Y8	Z8	X9	Y9	Z9	X10	Y10	Z10	X11	Y11	Z11	X12	Y12	Z12	X13	Y13	Z13	X14	Y14	Z14	X15	Y15	Z15	X16	Y16	Z16	X17	Y17	Z17	X18	Y18	Z18	X19	Y19	Z19	X20	Y20	Z20	X21	Y21	Z21	X22	Y22	Z22	X23	Y23	Z23	X24	Y24	Z24	X25	Y25	Z25	X26	Y26	Z26	X27	Y27	Z27	X28	Y28	Z28	X29	Y29	Z29	X30	Y30	Z30	X31	Y31	Z31	X32	Y32	Z32	X33	Y33	Z33	X34	Y34	Z34	X35	Y35	Z35	X36	Y36	Z36	X37	Y37	Z37	X38	Y38	Z38	X39	Y39	Z39	X40	Y40	Z40	X41	Y41	Z41	X42	Y42	Z42	X43	Y43	Z43	X44	Y44	Z44	X45	Y45	Z45	X46	Y46	Z46	X47	Y47	Z47	X48	Y48	Z48	X49	Y49	Z49	X50	Y50	Z50	X51	Y51	Z51	X52	Y52	Z52	X53	Y53	Z53	X54	Y54	Z54	

108	1.07	-875.1725463867188	1043.045654296875	724.3129272460938	-951.6286010742188	1040.852172851562	631.0642700195312	-923.7855834960938	1128.694458007812	670.0211181640625	-728.6321411132812	1305.288452148438	503.1330871582031	-919.585693359375	1255.400512695312	676.499267578125	-862.4998779296875	1513.563354492188	626.17431640625	-741.0294189453125	1424.432250976562	518.6194458007812	-874.5968017578125	1376.631958007812	735.1679077148438	-952.2726440429688	1480.860717773438	557.4439086914062	-921.8416748046875	1480.013305664062	455.5772705078125	-1005.584533691406	1366.065795898438	421.4412536621094	-1035.729370117188	1158.633056640625	398.2736206054688	-1050.354614257812	1141.695190429688	483.2578430175781	-910.6771240234375	939.0667724609375	359.6133728027344	-983.929931640625	915.3507080078125	323.3106994628906	-1023.842529296875	1053.096435546875	368.1511840820312	-883.438720703125	748.9733276367188	330.7748718261719	-956.1199340820312	831.2763671875	305.8118591308594	-888.8743896484375	846.2072143554688	311.3509826660156	-709.68212890625	1471.030029296875	714.4442138671875	-678.8471069335938	1409.214233398438	778.2587280273438	-646.4364624023438	1133.411743164062	833.2818603515625	-730.6325073242188	1118.910034179688	790.9539794921875	-565.9005737304688	913.505615234375	723.6070556640625	-556.2081298828125	907.3446044921875	807.0624389648438	-614.4481811523438	1066.715698242188	827.9328002929688	-545.6539916992188	720.3242797851562	724.8843994140625	-520.2359619140625	794.97314453125	714.048828125	-518.2138061523438	800.6177368164062	786.8628540039062	-774.5841064453125	1646.755737304688	650.7864379882812	-735.9304809570312	1728.88134765625	441.9851684570312	-654.5490112304688	1721.15625	500.4888305664062	-856.3701171875	1670.066528320312	539.178955078125	-959.2957763671875	974.6188354492188	459.0604553222656	-731.1688232421875	1008.415588378906	747.4064331054688	-678.81494140625	1046.994995117188	656.4107055664062	-851.1859130859375	1020.928466796875	435.2232055664062	-821.468994140625	504.9904479980469	380.4759521484375	-865.5022583007812	645.4483642578125	390.1538696289062	-1073.854614257812	150.3605346679688	598.2513427734375	-945.8046264648438	338.5061950683594	477.5463562011719	-904.1140747070312	54.91191482543945	508.8595275878906	-922.3563232421875	72.07954406738281	583.6431274414062	-1007.759826660156	87.40422821044922	510.3444213867188	-1073.698608398438	184.4450378417969	670.8193359375	-710.6946411132812	515.43359375	681.3983764648438	-674.5845947265625	783.2261352539062	711.3180541992188	-825.2081298828125	36.34733200073242	728.4042358398438	-722.2847290039062	393.662353515625	669.4569091796875	-674.68115234375	45.5241584777832	572.2487182617188	-744.6888427734375	43.21059799194336	568.6639404296875	-720.0150756835938	35.48124313354492	689.7445068359375	-909.3294067382812	39.82330703735352	713.8301391601562	nan	nan	nan	
109	1.08	-869.4149780273438	1043.16650390625	723.1568603515625	-946.8102416992188	1041.049438476562	630.6378784179688	-918.0791625976562	1128.909790039062	669.5372924804688	-724.7384033203125	1305.135986328125	500.0271301269531	-913.3240966796875	1255.542846679688	676.0797729492188	-856.3518676757812	1513.615600585938	624.9185791015625	-736.67626953125	1424.279052734375	515.69091796875	-867.2142333984375	1376.762573242188	734.1397094726562	-947.2734985351562	1481.033447265625	557.6468505859375	-918.3486938476562	1480.1611328125	455.2757568359375	-1002.869323730469	1366.365112304688	422.5720825195312	-1033.830932617188	1158.96923828125	400.0472717285156	-1047.237060546875	1142.087890625	485.2756652832031	-909.4130859375	939.357666015625	359.6762084960938	-983.0706787109375	915.6143188476562	324.4259033203125	-1022.393920898438	1053.396728515625	369.804931640625	-882.3217163085938	749.3043212890625	330.3673400878906	-955.5743408203125	831.6718139648438	306.5070190429688	-888.1473999023438	846.5737915039062	311.1299438476562	-702.4327392578125	1470.875610351562	711.0023803710938	-670.6943359375	1409.044921875	774.3179931640625	-636.8090209960938	1133.351928710938	828.8735961914062	-721.7970581054688	1118.73486328125	788.0130615234375	-557.250244140625	913.8355102539062	717.7564697265625	-546.300537109375	907.589599609375	801.0391235351562	-604.75634765625	1066.753295898438	822.9785766601562	-536.0588989257812	720.8193969726562	718.4583129882812	-511.2600708007812	795.5352783203125	707.3231201171875	-508.1852722167969	801.0726318359375	780.1395263671875	-768.66259765625	1646.834594726562	648.2988891601562	-731.3779296875	1728.65625	439.0956420898438	-649.591796875	1720.888061523438	497.0575866699219	-851.2433471679688	1670.125	537.2638549804688	-956.0860595703125	975.0197143554688	458.7146911621094	-725.2664184570312	1008.200317382812	744.9002685546875	-673.6631469726562	1046.704956054688	653.3360595703125	-848.2625122070312	1021.186706542969	433.92919921875	-814.1959838867188	507.0682983398438	375.4898986816406	-860.286376953125	646.9405517578125	386.7217712402344	-1055.258911132812	143.0361175537109	591.9780883789062	-933.69970703125	336.3426513671875	472.2311706542969	-884.1935424804688	54.53099822998047	498.1077880859375	-901.7186889648438	69.749267578125	573.5115966796875	-988.8037109375	83.81680297851562	501.8292541503906	-1055.010620117188	175.9188537597656	665.073486328125	-709.0836791992188	515.0094604492188	681.0130004882812	-670.5350952148438	782.8556518554688	709.05126953125	-825.2153930664062	36.39380264282227	728.3521728515625	-721.4249267578125	393.3818359375	669.3383178710938	-674.7205810546875	45.47163009643555	572.2532958984375	-744.6611938476562	43.22352981567383	568.6608276367188	-720.0128784179688	35.43108749389648	689.7677001953125	-909.3240356445312	40.04359817504883	713.8895874023438	nan	nan	nan	
110	1.09	-863.7427368164062	1043.2177734375	721.9839477539062	-941.9989013671875	1041.124755859375	630.1788940429688	-912.4807739257812	1129.0888671875	669.0056762695312	-720.8876342773438	1304.905029296875	496.8979797363281	-907.103271484375	1255.650634765625	675.5135498046875	-850.267822265625	1513.623168945312	623.5740356445312	-732.3538818359375	1424.061157226562	512.7172241210938	-859.9436645507812	1376.8486328125	732.9829711914062	-942.201171875	1481.12890625	557.6494140625	-914.8214721679688	1480.233642578125	454.8648986816406	-1000.092834472656	1366.591430664062	423.5860900878906	-1031.856323242188	1159.222900390625	401.7440795898438	-1044.045532226562	1142.423583984375	487.201904296875	-908.2674560546875	939.436279296875	359.7705993652344	-982.3466796875	915.7286376953125	325.5765380859375	-1020.951477050781	1053.599365234375	371.4295654296875	-881.52490234375	749.3985595703125	330.0297241210938	-955.2186889648438	831.868896484375	307.2516784667969	-887.6451416015625	846.7078857421875	310.9792175292969	-695.302001953125	1470.64306640625	707.48876953125	-662.7021484375	1408.795166015625	770.3073120117188	-627.384521484375	1133.19482421875	824.3460693359375	-713.1700439453125	1118.493530273438	784.960693359375	-548.7806396484375	914.123046875	711.724365234375	-536.60009765625	907.75927734375	794.8274536132812	-595.26318359375	1066.694580078125	817.8937377929688	-526.6301879882812	721.279541015625	711.7098388671875	-502.4342651367188	796.0853881835938	700.3513793945312	-498.3416137695312	801.45849609375	773.1741943359375	-762.8107299804688	1646.841430664062	645.73681640625	-726.8709716796875	1728.367309570312	436.16748046875	-644.6929931640625	1720.572875976562	493.5967102050781	-846.1503295898438	1670.093017578125	535.2430419921875	-952.845703125	975.3589477539062	458.3103637695312	-719.3914184570312	1007.959655761719	742.2991333007812	-668.6058349609375	1046.356079101562	650.24560546875	-845.3465576171875	1021.387817382812	432.6036071777344	-807.2324829101562	509.1532592773438	370.5944213867188	-855.3400268554688	648.3724365234375	383.3576965332031	-1036.502807617188	135.7641296386719	585.163818359375	-921.7042236328125	334.1663818359375	466.7655334472656	-864.6546630859375	54.21939849853516	486.4869384765625	-881.257080078125	67.37832641601562	562.5257568359375	-970.0100708007812	80.44844055175781	492.6185913085938	-1035.97509765625	167.2530212402344	658.8421020507812	-707.44873046875	514.5656127929688	680.5100708007812	-666.5293579101562	782.4430541992188	706.7045288085938	-825.2230224609375	36.44532012939453	728.2907104492188	-720.5330810546875	393.0859680175781	669.1298217773438	-674.7415771484375	45.42684173583984	572.2474975585938	-744.6212158203125	43.24328231811523	568.6360473632812	-720.0053100585938	35.38946151733398	689.7788696289062	-909.334716796875	40.27873611450195	713.9644165039062	nan	nan	nan	
111	1.1	-858.1569213867188	1043.210205078125	720.7868041992188	-937.2019653320312	1041.094482421875	629.7042236328125	-906.9796142578125	1129.232543945312	668.41162109375	-717.0681762695312	1304.602294921875	493.7543029785156	-900.9307250976562	1255.723510742188	674.7994384765625	-844.258544921875	1513.595458984375	622.1436157226562	-728.059814453125	1423.784423828125	509.7009582519531	-852.7850952148438	1376.893920898438	731.6986083984375	-937.06396484375	1481.161865234375	557.4472045898438	-911.2545776367188	1480.235229492188	454.336181640625	-997.241943359375	1366.745361328125	424.4645385742188	-1029.79296875	1159.399169921875	403.3509826660156	-1040.75927734375	1142.708374023438	489.0215759277344	-907.2280883789062	939.3115844726562	359.8945922851562	-981.759033203125	915.701171875	326.7680969238281	-1019.50927734375	1053.710205078125	373.0181274414062	-881.0587158203125	749.258056640625	329.7714233398438	-955.0348510742188	831.8543701171875	308.0616149902344	-887.3711547851562	846.6069946289062	310.9003295898438	-688.2900390625	1470.336791992188	703.9073486328125	-654.86865234375	1408.471313476562	766.2362670898438	-618.1633911132812	1132.945434570312	819.6917114257812	-704.708740234375	1118.161743164062	781.7648315429688	-540.5003662109375	914.365234375	705.5114135742188	-527.1114501953125	907.8571166992188	788.4290161132812	-585.96337890625	1066.543701171875	812.6712036132812	-517.3973999023438	721.6923217773438	704.668212890625	-493.7897033691406	796.6061401367188	693.157958984375	-488.7024536132812	801.7703857421875	765.97802734375	-757.0203857421875	1646.775390625	643.0991821289062	-722.4041137695312	1728.015869140625	433.1995849609375	-639.8480834960938	1720.212524414062	490.1041564941406	-841.0850219726562	1669.9775390625	533.1195678710938	-949.5844116210938	975.6278076171875	457.8453674316406	-713.5797729492188	1007.701293945312	739.6343383789062	-663.6411743164062	1045.959838867188	647.1463623046875	-842.4282836914062	1021.534362792969	431.2444152832031	-800.5740966796875	511.2227783203125	365.8086547851562	-850.6422729492188	649.7284545898438	380.0664672851562	-1017.614379882812	128.6181945800781	577.8240356445312	-909.8016967773438	331.9820861816406	461.1636047363281	-845.507080078125	54.0031623840332	474.1190490722656	-860.9949340820312	65.04271697998047	550.7855834960938	-951.3981323242188	77.30790710449219	482.79541015625	-1016.626831054688	158.5554656982422	652.117919921875	-705.7957763671875	514.102294921875	679.8981323242188	-662.5540161132812	781.9810180664062	704.26171875	-825.2308349609375	36.5026741027832	728.2237548828125	-719.5814208984375	392.788330078125	668.8359375	-674.7376708984375	45.39367294311523	572.2315063476562	-744.5650634765625	43.26900482177734	568.5967407226562	-719.9911499023438	35.35643768310547	689.7794799804688	-909.3600463867188	40.51859664916992	714.04736328125	nan	nan	nan	
